<svg width="286" height="102" viewBox="0 0 286 102" fill="none" xmlns="http://www.w3.org/2000/svg">
<path d="M163.225 13.0918L138.738 37.5963L163.225 62.1007L150.142 75.1926L112.573 37.5963L150.142 -1.9512e-07L163.225 13.0918Z" fill="url(#paint0_linear_73_2023)"/>
<path d="M266.654 43.9606C272.243 43.9606 276.502 45.272 279.432 47.8949C282.4 50.5178 283.884 54.5293 283.884 59.9293V61.8965H260.988C260.988 64.0951 261.47 65.7537 262.434 66.8723C263.436 67.9909 264.997 68.5501 267.117 68.5501C269.044 68.5501 270.451 68.1451 271.337 67.3351C272.263 66.5251 272.725 65.4451 272.725 64.0951H283.884C283.884 67.798 282.477 70.6909 279.663 72.7738C276.849 74.8566 272.744 75.8981 267.348 75.8981C261.682 75.8981 257.288 74.5866 254.166 71.9638C251.044 69.3023 249.483 65.2908 249.483 59.9293C249.483 54.6836 251.005 50.7107 254.05 48.0106C257.095 45.3106 261.297 43.9606 266.654 43.9606ZM267.117 51.3085C263.494 51.3085 261.47 53.025 261.046 56.4579H272.263C272.263 54.8764 271.8 53.6228 270.875 52.6971C269.988 51.7714 268.736 51.3085 267.117 51.3085Z" fill="#FAFAFA"/>
<path d="M241.789 32.5626C242.637 32.5626 243.697 32.6783 244.969 32.9098C246.241 33.1026 247.262 33.3341 248.033 33.6041V40.3734H245.374C244.14 40.3734 243.292 40.6049 242.83 41.0677C242.367 41.5306 242.136 42.3213 242.136 43.4399V44.6549H248.033V52.4657H242.136V75.2038H230.63V52.4657H226.352V44.6549H230.63V43.382C230.63 39.4477 231.594 36.6705 233.521 35.0505C235.448 33.3919 238.204 32.5626 241.789 32.5626Z" fill="#FAFAFA"/>
<path d="M205.885 43.9606C210.549 43.9606 214.346 44.7513 217.275 46.3327C220.205 47.8756 221.669 50.4021 221.669 53.9121V65.8308C221.669 66.4866 221.823 67.0266 222.132 67.4508C222.44 67.8751 222.903 68.0873 223.519 68.0873H225.601V74.7409C225.485 74.8181 225.177 74.9531 224.676 75.1459C224.213 75.3002 223.539 75.4545 222.652 75.6088C221.766 75.8017 220.744 75.8981 219.588 75.8981C217.352 75.8981 215.502 75.5702 214.037 74.9145C212.611 74.2202 211.628 73.2752 211.089 72.0795C209.624 73.2366 207.986 74.1624 206.174 74.8567C204.363 75.5509 202.243 75.8981 199.815 75.8981C192.645 75.8981 189.061 73.0438 189.061 67.3351C189.061 64.3651 189.851 62.1086 191.431 60.5658C193.05 58.9843 195.363 57.9043 198.369 57.3257C201.376 56.7471 205.307 56.4579 210.164 56.4579V54.9536C210.164 53.7578 209.74 52.8514 208.892 52.2342C208.082 51.6171 207.022 51.3085 205.712 51.3085C204.517 51.3085 203.476 51.5207 202.59 51.945C201.742 52.3692 201.318 53.0442 201.318 53.97V54.2014H189.986C189.947 54.0085 189.928 53.7385 189.928 53.3914C189.928 50.4985 191.296 48.2035 194.033 46.5063C196.808 44.8092 200.759 43.9606 205.885 43.9606ZM210.164 61.8965C206.887 61.8965 204.459 62.2629 202.879 62.9958C201.337 63.6901 200.566 64.6351 200.566 65.8308C200.566 67.7594 201.877 68.7237 204.498 68.7237C206.001 68.7237 207.311 68.3187 208.429 67.5087C209.586 66.6987 210.164 65.6958 210.164 64.5001V61.8965Z" fill="#FAFAFA"/>
<path d="M155.345 39.8992L179.832 64.4037L155.345 88.9081L168.428 102L205.998 64.4037L168.428 26.8074L155.345 39.8992Z" fill="url(#paint1_linear_73_2023)"/>
<path d="M142.616 44.6548V52.4656H136.14V64.0951C136.14 65.4837 136.372 66.5058 136.834 67.1615C137.297 67.7787 138.145 68.0873 139.378 68.0873H142.616V74.8566C141.691 75.1652 140.496 75.4159 139.031 75.6088C137.566 75.8016 136.294 75.8981 135.215 75.8981C131.823 75.8981 129.202 75.2809 127.352 74.0466C125.541 72.8123 124.635 70.7101 124.635 67.7401V52.4656H120.356V44.6548H125.097L127.583 35.3976H136.14V44.6548H142.616Z" fill="#FAFAFA"/>
<path d="M103.416 41.0676V33.2568H114.921V41.0676H103.416ZM103.416 75.2038V44.6548H114.921V75.2038H103.416Z" fill="#FAFAFA"/>
<path d="M84.1621 75.2038V33.2568H95.6676V75.2038H84.1621Z" fill="#FAFAFA"/>
<path d="M65.3144 43.9606C69.4386 43.9606 72.6185 45.3106 74.8541 48.0106C77.0897 50.7107 78.2075 54.7028 78.2075 59.9872C78.2075 65.233 77.0897 69.2059 74.8541 71.9059C72.6185 74.5674 69.4386 75.8981 65.3144 75.8981C61.7683 75.8981 58.916 74.7409 56.7575 72.4266V86.6018H45.252V44.6549H54.6183L55.6011 48.9942C57.8367 45.6384 61.0745 43.9606 65.3144 43.9606ZM61.7297 52.4657C60.0338 52.4657 58.7618 53.0635 57.9138 54.2593C57.0658 55.455 56.6418 57.0172 56.6418 58.9457V60.8551C56.6418 62.7836 57.0658 64.3651 57.9138 65.5994C58.7618 66.7951 60.0338 67.393 61.7297 67.393C65.0445 67.393 66.702 65.4065 66.702 61.4336V58.3672C66.702 54.4328 65.0445 52.4657 61.7297 52.4657Z" fill="#FAFAFA"/>
<path d="M20.9874 34.7034C26.0753 34.7034 30.2574 35.7448 33.5337 37.8277C36.8099 39.872 38.4866 42.9192 38.5637 46.9692V47.6635H26.5957V47.4321C26.5957 46.2749 26.1717 45.3106 25.3237 44.5392C24.4757 43.7678 23.1845 43.382 21.45 43.382C19.754 43.382 18.4435 43.6328 17.5184 44.1342C16.6319 44.6356 16.1886 45.2528 16.1886 45.9856C16.1886 47.0271 16.8054 47.7985 18.0388 48.3C19.2722 48.8014 21.2572 49.3221 23.9939 49.8621C27.1931 50.5178 29.8141 51.2121 31.857 51.945C33.9384 52.6393 35.75 53.7965 37.2918 55.4165C38.8335 57.0365 39.6237 59.2351 39.6622 62.0123C39.6622 66.718 38.0626 70.2088 34.8634 72.4845C31.7028 74.7603 27.4629 75.8981 22.1438 75.8981C15.9381 75.8981 11.1008 74.8567 7.63177 72.7738C4.20131 70.6909 2.48608 67.0073 2.48608 61.723H14.5698C14.5698 63.7287 15.0901 65.0787 16.1308 65.773C17.1715 66.4287 18.7904 66.7566 20.9874 66.7566C22.6063 66.7566 23.9361 66.583 24.9768 66.2359C26.056 65.8887 26.5957 65.1752 26.5957 64.0951C26.5957 63.1308 25.9982 62.4173 24.8033 61.9544C23.647 61.453 21.7391 60.9323 19.0795 60.3922C15.8417 59.698 13.1629 58.9844 11.043 58.2515C8.92301 57.4801 7.07288 56.2265 5.49255 54.4907C3.91223 52.755 3.12207 50.4021 3.12207 47.4321C3.12207 43.0735 4.79875 39.872 8.15212 37.8277C11.544 35.7448 15.8225 34.7034 20.9874 34.7034Z" fill="#FAFAFA"/>
<defs>
<linearGradient id="paint0_linear_73_2023" x1="141.169" y1="6.54592" x2="141.169" y2="68.6466" gradientUnits="userSpaceOnUse">
<stop stop-color="#FEB64D"/>
<stop offset="1" stop-color="#F98537"/>
</linearGradient>
<linearGradient id="paint1_linear_73_2023" x1="177.401" y1="33.3533" x2="177.401" y2="95.454" gradientUnits="userSpaceOnUse">
<stop stop-color="#FEB64D"/>
<stop offset="1" stop-color="#F76C2C"/>
</linearGradient>
</defs>
</svg>
